<svg width="46" height="47" viewBox="0 0 46 47" fill="none" xmlns="http://www.w3.org/2000/svg">
<g clip-path="url(#clip0)">
<path d="M27.9908 7.02346C29.3077 6.01416 29.8433 4.256 29.3196 2.66116C28.796 1.06632 27.3313 -0.00609325 25.685 2.60523e-05H19.5522C17.9059 -0.00609325 16.4408 1.06632 15.9175 2.66116C15.3938 4.256 15.9291 6.01416 17.246 7.02346C7.65441 9.76682 1.51708 19.3233 2.87211 29.4052C4.22715 39.4875 12.6583 47.0001 22.6186 47.0001C32.5788 47.0001 41.01 39.4875 42.365 29.4052C43.7201 19.3233 37.5824 9.76682 27.9908 7.02346ZM19.5522 6.2662C18.2821 6.2662 17.2523 5.21406 17.2523 3.91638C17.2523 2.61871 18.2821 1.56657 19.5522 1.56657H25.685C26.9551 1.56657 27.9848 2.61871 27.9848 3.91638C27.9848 5.21406 26.9551 6.2662 25.685 6.2662H19.5522ZM22.6186 45.4298C12.4573 45.4298 4.22003 37.0134 4.22003 26.6312C4.22003 16.2491 12.4573 7.83274 22.6186 7.83274C32.7798 7.83274 41.0171 16.2491 41.0171 26.6312C41.0051 37.0084 32.775 45.4175 22.6186 45.4298Z" fill="#EB2227"/>
<path d="M6.51983 10.9658C8.6366 10.9658 10.3529 9.2122 10.3529 7.04941C10.3529 4.88662 8.6366 3.13306 6.51983 3.13306C4.40268 3.13306 2.6868 4.88662 2.6868 7.04941C2.68942 9.21144 4.4038 10.9631 6.51983 10.9658ZM6.51983 4.6996C7.78989 4.6996 8.81964 5.75174 8.81964 7.04941C8.81964 8.34709 7.78989 9.39923 6.51983 9.39923C5.24976 9.39923 4.22001 8.34709 4.22001 7.04941C4.22001 5.75174 5.24976 4.6996 6.51983 4.6996Z" fill="#EB2227"/>
<path d="M39.4839 10.9658C41.6007 10.9658 43.3169 9.2122 43.3169 7.04941C43.3169 4.88662 41.6007 3.13306 39.4839 3.13306C37.3668 3.13306 35.6509 4.88662 35.6509 7.04941C35.6535 9.21144 37.3679 10.9631 39.4839 10.9658ZM39.4839 4.6996C40.754 4.6996 41.7837 5.75174 41.7837 7.04941C41.7837 8.34709 40.754 9.39923 39.4839 9.39923C38.2138 9.39923 37.1841 8.34709 37.1841 7.04941C37.1841 5.75174 38.2138 4.6996 39.4839 4.6996Z" fill="#EB2227"/>
<path d="M22.6186 9.39929V10.9658C30.7843 10.9754 37.5139 17.5154 37.9316 25.848H31.0119C30.6024 21.2612 26.7338 17.8145 22.2308 18.0241C17.7273 18.2337 14.1818 22.0253 14.1818 26.6313C14.1818 31.2372 17.7273 35.0289 22.2308 35.2384C26.7338 35.448 30.6024 32.0013 31.0119 27.4145H38.7173C39.1407 27.4145 39.4839 27.0638 39.4839 26.6313C39.4734 17.1188 31.9286 9.41 22.6186 9.39929ZM22.6186 33.6807C18.808 33.6807 15.7191 30.5247 15.7191 26.6313C15.7191 22.7378 18.808 19.5818 22.6186 19.5818C26.4291 19.5818 29.518 22.7378 29.518 26.6313C29.5132 30.5228 26.4269 33.6761 22.6186 33.6807Z" fill="#EB2227"/>
<path d="M22.6186 22.7148C23.4653 22.7148 24.1518 23.4162 24.1518 24.2813H25.685C25.6798 22.8571 24.735 21.6156 23.3852 21.2596V20.365H21.852V21.2596C20.3585 21.6523 19.3841 23.1191 19.5788 24.6825C19.7738 26.2456 21.0764 27.4163 22.6186 27.4144C23.4653 27.4144 24.1518 28.1159 24.1518 28.981C24.1518 29.8461 23.4653 30.5475 22.6186 30.5475C21.7719 30.5475 21.0854 29.8461 21.0854 28.981H19.5522C19.5574 30.4052 20.5022 31.6467 21.852 32.0028V32.8973H23.3852V32.0028C24.8788 31.61 25.8527 30.1433 25.6581 28.5802C25.4634 27.0167 24.1608 25.846 22.6186 25.8479C21.7719 25.8479 21.0854 25.1465 21.0854 24.2813C21.0854 23.4162 21.7719 22.7148 22.6186 22.7148Z" fill="#EB2227"/>
<path d="M31.2915 36.6008L32.3759 35.4932L35.628 38.8163L34.544 39.9239L31.2915 36.6008Z" fill="#EB2227"/>
<path d="M21.8519 39.9468H23.3851V44.6464H21.8519V39.9468Z" fill="#EB2227"/>
<path d="M9.60837 38.8163L12.8608 35.4932L13.9449 36.6008L10.6924 39.9239L9.60837 38.8163Z" fill="#EB2227"/>
<path d="M4.98666 25.848H9.5863V27.4146H4.98666V25.848Z" fill="#EB2227"/>
<path d="M9.6091 14.4461L10.6935 13.3381L13.946 16.6613L12.8616 17.7693L9.6091 14.4461Z" fill="#EB2227"/>
</g>
<defs>
<clipPath id="clip0">
<rect width="46" height="47" fill="white"/>
</clipPath>
</defs>
</svg>
