<svg width="48" height="47" viewBox="0 0 48 47" fill="none" xmlns="http://www.w3.org/2000/svg">
<path d="M2.17742 20.5387H6.20395C6.4421 21.3796 6.78516 22.1886 7.22631 22.9467L4.37639 25.7362C4.2403 25.8694 4.16375 26.0502 4.16375 26.2389C4.16375 26.4277 4.2403 26.6084 4.37639 26.7417L7.45539 29.7574C7.73891 30.0344 8.19821 30.0344 8.48173 29.7574L11.3319 26.9663C12.1062 27.398 12.9315 27.7342 13.7903 27.9671V31.9097C13.7903 32.3023 14.1152 32.6204 14.5161 32.6204H18.871C19.2719 32.6204 19.5968 32.3023 19.5968 31.9097V27.9671C20.4556 27.7342 21.2809 27.398 22.0552 26.9663L24.9054 29.7574C25.1934 30.0239 25.6439 30.0239 25.9317 29.7574L29.0113 26.7417C29.1474 26.6084 29.2239 26.4277 29.2239 26.2389C29.2239 26.0502 29.1474 25.8694 29.0113 25.7362L26.1608 22.9467C26.6019 22.1886 26.945 21.3796 27.1832 20.5387H31.2097C31.6106 20.5387 31.9355 20.2206 31.9355 19.8281V15.5639C31.9355 15.1717 31.6106 14.8533 31.2097 14.8533H27.1832C26.945 14.0127 26.6019 13.2037 26.1608 12.4455L29.0107 9.65609C29.1468 9.52284 29.2234 9.34212 29.2234 9.15334C29.2234 8.96456 29.1468 8.78384 29.0107 8.65059L25.9317 5.63489C25.6482 5.35756 25.1889 5.35756 24.9054 5.63489L22.0552 8.426C21.2809 7.99459 20.4553 7.6584 19.5968 7.42521V3.48229C19.5968 3.09003 19.2719 2.77161 18.871 2.77161H14.5161C14.1152 2.77161 13.7903 3.09003 13.7903 3.48229V7.42521C12.9318 7.6584 12.1062 7.99459 11.3319 8.426L8.48173 5.63489C8.19368 5.36838 7.74317 5.36838 7.45539 5.63489L4.37582 8.65059C4.23973 8.78384 4.16318 8.96456 4.16318 9.15334C4.16318 9.34212 4.23973 9.52284 4.37582 9.65609L7.22631 12.4455C6.78516 13.2037 6.4421 14.0127 6.20395 14.8533H2.17742C1.77653 14.8533 1.45161 15.1717 1.45161 15.5639V19.8281C1.45161 20.2206 1.77653 20.5387 2.17742 20.5387ZM2.90323 16.2746H6.77183C7.1129 16.2746 7.40805 16.0423 7.48091 15.7161C7.71907 14.6517 8.14973 13.6373 8.75249 12.7212C8.93649 12.4403 8.89567 12.0713 8.65439 11.8351L5.91532 9.15306L7.96856 7.14232L10.7071 9.82433C10.9483 10.0611 11.3254 10.1011 11.6129 9.92066C12.5488 9.33073 13.5845 8.90904 14.6715 8.67557C15.0043 8.60395 15.2419 8.31495 15.2419 7.98099V4.19298H18.1452V7.98099C18.1452 8.31495 18.3827 8.60395 18.7156 8.67557C19.8026 8.90904 20.8383 9.33073 21.7742 9.92066C22.0617 10.1011 22.4388 10.0611 22.68 9.82433L25.4185 7.14232L27.4712 9.15306L24.7327 11.8342C24.4909 12.0708 24.4503 12.44 24.6346 12.7212C25.2374 13.6379 25.6675 14.652 25.9053 15.7166C25.9785 16.0428 26.2736 16.2755 26.6144 16.2755H30.4839V19.1182H26.6144C26.2736 19.1182 25.9785 19.3506 25.9053 19.6768C25.6675 20.7411 25.2371 21.7552 24.6346 22.6708C24.4506 22.952 24.4914 23.321 24.7327 23.5572L27.4718 26.2387L25.4185 28.25L22.68 25.5677C22.4388 25.3312 22.0617 25.2912 21.7742 25.4716C20.8389 26.0618 19.8035 26.4835 18.7165 26.7167C18.383 26.7878 18.1452 27.077 18.1452 27.411V31.199H15.2419V27.411C15.2419 27.077 15.0041 26.7878 14.6706 26.7167C13.5836 26.4835 12.5482 26.0618 11.6129 25.4716C11.3254 25.2912 10.9483 25.3312 10.7071 25.5677L7.96856 28.25L5.91589 26.2392L8.65439 23.5578C8.89623 23.3215 8.93678 22.9523 8.75249 22.6708C8.14973 21.7544 7.71907 20.74 7.48091 19.6754C7.40776 19.3492 7.1129 19.1174 6.77183 19.1174H2.90323V16.2746Z" fill="#EB2227"/>
<path d="M16.6935 23.3815C19.9004 23.3815 22.5 20.8363 22.5 17.696C22.5 14.5559 19.9004 12.0105 16.6935 12.0105C13.4867 12.0105 10.8871 14.5559 10.8871 17.696C10.8905 20.8344 13.4884 23.3782 16.6935 23.3815ZM16.6935 13.4319C19.0983 13.4319 21.0484 15.3413 21.0484 17.696C21.0484 20.051 19.0983 21.9601 16.6935 21.9601C14.2887 21.9601 12.3387 20.051 12.3387 17.696C12.3413 15.3418 14.2893 13.4344 16.6935 13.4319Z" fill="#EB2227"/>
<path d="M16.6936 25.5135C21.1028 25.5135 24.6774 22.0136 24.6774 17.696C24.6774 13.3785 21.1028 9.87842 16.6936 9.87842C12.2843 9.87842 8.70969 13.3785 8.70969 17.696C8.71507 22.0114 12.2863 25.5085 16.6936 25.5135ZM16.6936 11.2998C20.3013 11.2998 23.2258 14.1634 23.2258 17.696C23.2258 21.2286 20.3013 24.0921 16.6936 24.0921C13.0858 24.0921 10.1613 21.2286 10.1613 17.696C10.1653 14.1653 13.0875 11.3037 16.6936 11.2998Z" fill="#EB2227"/>
<path d="M42.8226 35.4631V29.7776C42.8226 29.3854 42.4977 29.0669 42.0968 29.0669H40.6452V23.3815C40.6452 22.9892 40.3203 22.6708 39.9194 22.6708H33.3871C32.9862 22.6708 32.6613 22.9892 32.6613 23.3815V29.0669H29.0323C28.6314 29.0669 28.3065 29.3854 28.3065 29.7776V35.4631H5.08065C3.07731 35.4656 1.45417 37.0549 1.45161 39.0165V40.4379C1.45417 42.3998 3.07731 43.9891 5.08065 43.9913H42.8226C44.8259 43.9891 46.4491 42.3998 46.4516 40.4379V39.0165C46.4491 37.0549 44.8259 35.4656 42.8226 35.4631ZM41.371 35.4631H36.2903V30.4883H41.371V35.4631ZM34.1129 24.0921H39.1936V29.0669H34.1129V24.0921ZM29.7581 30.4883H34.8387V35.4631H29.7581V30.4883ZM45 40.4379C45 41.6155 44.025 42.57 42.8226 42.57H5.08065C3.87825 42.57 2.90323 41.6155 2.90323 40.4379V39.0165C2.90323 37.8392 3.87825 36.8845 5.08065 36.8845H42.8226C44.025 36.8845 45 37.8392 45 39.0165V40.4379Z" fill="#EB2227"/>
<path d="M23.9516 37.5952C22.7492 37.5952 21.7742 38.5499 21.7742 39.7273C21.7742 40.9049 22.7492 41.8593 23.9516 41.8593C25.154 41.8593 26.129 40.9049 26.129 39.7273C26.129 38.5499 25.154 37.5952 23.9516 37.5952ZM23.9516 40.4379C23.5507 40.4379 23.2258 40.1198 23.2258 39.7273C23.2258 39.335 23.5507 39.0166 23.9516 39.0166C24.3525 39.0166 24.6774 39.335 24.6774 39.7273C24.6774 40.1198 24.3525 40.4379 23.9516 40.4379Z" fill="#EB2227"/>
<path d="M16.6935 37.5952C15.4911 37.5952 14.5161 38.5499 14.5161 39.7273C14.5161 40.9049 15.4911 41.8593 16.6935 41.8593C17.8959 41.8593 18.871 40.9049 18.871 39.7273C18.871 38.5499 17.8959 37.5952 16.6935 37.5952ZM16.6935 40.4379C16.2927 40.4379 15.9677 40.1198 15.9677 39.7273C15.9677 39.335 16.2927 39.0166 16.6935 39.0166C17.0944 39.0166 17.4194 39.335 17.4194 39.7273C17.4194 40.1198 17.0944 40.4379 16.6935 40.4379Z" fill="#EB2227"/>
<path d="M31.2097 37.5952C30.0073 37.5952 29.0323 38.5499 29.0323 39.7273C29.0323 40.9049 30.0073 41.8593 31.2097 41.8593C32.4121 41.8593 33.3871 40.9049 33.3871 39.7273C33.3871 38.5499 32.4121 37.5952 31.2097 37.5952ZM31.2097 40.4379C30.8088 40.4379 30.4839 40.1198 30.4839 39.7273C30.4839 39.335 30.8088 39.0166 31.2097 39.0166C31.6106 39.0166 31.9355 39.335 31.9355 39.7273C31.9355 40.1198 31.6106 40.4379 31.2097 40.4379Z" fill="#EB2227"/>
<path d="M9.43548 37.5952C8.23308 37.5952 7.25806 38.5499 7.25806 39.7273C7.25806 40.9049 8.23308 41.8593 9.43548 41.8593C10.6379 41.8593 11.6129 40.9049 11.6129 39.7273C11.6129 38.5499 10.6379 37.5952 9.43548 37.5952ZM9.43548 40.4379C9.03458 40.4379 8.70967 40.1198 8.70967 39.7273C8.70967 39.335 9.03458 39.0166 9.43548 39.0166C9.83637 39.0166 10.1613 39.335 10.1613 39.7273C10.1613 40.1198 9.83637 40.4379 9.43548 40.4379Z" fill="#EB2227"/>
<path d="M38.4677 37.5952C37.2653 37.5952 36.2903 38.5499 36.2903 39.7273C36.2903 40.9049 37.2653 41.8593 38.4677 41.8593C39.6701 41.8593 40.6451 40.9049 40.6451 39.7273C40.6451 38.5499 39.6701 37.5952 38.4677 37.5952ZM38.4677 40.4379C38.0668 40.4379 37.7419 40.1198 37.7419 39.7273C37.7419 39.335 38.0668 39.0166 38.4677 39.0166C38.8686 39.0166 39.1935 39.335 39.1935 39.7273C39.1935 40.1198 38.8686 40.4379 38.4677 40.4379Z" fill="#EB2227"/>
</svg>
