<svg width="26" height="20" viewBox="0 0 26 20" fill="none" xmlns="http://www.w3.org/2000/svg">
<path d="M26 16.4999C26 17.0699 25.8397 17.5983 25.5828 18.0632L17.3736 8.87819L25.4938 1.77369C25.8097 2.27497 26 2.86382 26 3.50014V16.4999ZM13 10.5459L24.2991 0.659496C23.8354 0.405664 23.3133 0.25 22.7501 0.25H3.24998C2.68605 0.25 2.16376 0.405664 1.70196 0.659496L13 10.5459ZM16.1501 9.9478L13.5347 12.2377C13.3817 12.371 13.1912 12.4375 13 12.4375C12.8087 12.4375 12.6182 12.371 12.4653 12.2377L9.84923 9.94769L1.53612 19.2501C2.03441 19.5627 2.61837 19.75 3.24993 19.75H22.7501C23.3815 19.75 23.9658 19.5627 24.4639 19.2501L16.1501 9.9478ZM0.50627 1.77363C0.190441 2.27492 0 2.86377 0 3.50014V16.5C0 17.0699 0.159576 17.5983 0.417373 18.0632L8.62567 8.87664L0.50627 1.77363Z" fill="#EB2227"/>
</svg>
