<svg width="17" height="17" viewBox="0 0 17 17" fill="none" xmlns="http://www.w3.org/2000/svg">
<path d="M15.6793 7.70248L12.488 10.8927C10.7267 12.6551 7.86932 12.6551 6.10768 10.8927C5.8302 10.616 5.61312 10.3042 5.42248 9.98271L6.90529 8.50001C6.97578 8.42893 7.06282 8.3882 7.14599 8.34021C7.24851 8.69046 7.42746 9.02203 7.7029 9.29751C8.58253 10.1778 10.0139 10.1766 10.893 9.29751L14.0832 6.10733C14.9635 5.22711 14.9635 3.79612 14.0832 2.91656C13.2041 2.03701 11.7731 2.03701 10.893 2.91656L9.7585 4.05225C8.83788 3.69379 7.84603 3.59741 6.88048 3.73891L9.29793 1.32153C11.0603 -0.440511 13.9169 -0.440511 15.6793 1.32153C17.4408 3.0835 17.4408 5.94054 15.6793 7.70248ZM7.24293 12.9483L6.10765 14.084C5.22809 14.9631 3.79669 14.9631 2.91699 14.084C2.03736 13.2037 2.03736 11.7727 2.91699 10.8927L6.10765 7.70248C6.98791 6.82233 8.41834 6.82233 9.29789 7.70248C9.5727 7.97736 9.75184 8.30886 9.85532 8.65865C9.93898 8.61004 10.0249 8.57053 10.0954 8.49997L11.5781 7.01787C11.3887 6.69508 11.1705 6.38441 10.8929 6.10741C9.1317 4.34536 6.2741 4.34536 4.51206 6.10741L1.32188 9.29769C-0.439976 11.0603 -0.439976 13.9165 1.32188 15.6789C3.08393 17.4404 5.94086 17.4404 7.70286 15.6789L10.1209 13.261C9.15487 13.4033 8.16276 13.3061 7.24293 12.9483Z" fill="#EB2227"/>
</svg>
