<svg width="23" height="31" viewBox="0 0 23 31" fill="none" xmlns="http://www.w3.org/2000/svg">
<path d="M11.4995 0C5.20709 0 0.0872192 5.11987 0.0872192 11.413C0.0872192 13.0544 0.423193 14.6217 1.0853 16.0715C3.9387 22.3154 9.40946 28.9077 11.0186 30.7792C11.1391 30.9191 11.3149 30.9997 11.4999 30.9997C11.6848 30.9997 11.8606 30.9191 11.9811 30.7792C13.5896 28.908 19.0604 22.3161 21.9147 16.0715C22.5771 14.6217 22.9128 13.0544 22.9128 11.413C22.9122 5.11987 17.7923 0 11.4995 0ZM11.4995 17.3409C8.23085 17.3409 5.5713 14.6813 5.5713 11.4126C5.5713 8.14363 8.23085 5.48408 11.4995 5.48408C14.7682 5.48408 17.4278 8.14363 17.4278 11.4126C17.4281 14.6813 14.7685 17.3409 11.4995 17.3409Z" fill="#EB2227"/>
</svg>
