<svg width="205" height="57" viewBox="0 0 205 57" fill="none" xmlns="http://www.w3.org/2000/svg">
<path fill-rule="evenodd" clip-rule="evenodd" d="M39.7593 40.9872H0.326202V36.0158L23.9393 21.5674L39.7593 30.1898V40.9872Z" fill="#D04C44"/>
<path fill-rule="evenodd" clip-rule="evenodd" d="M0.637924 6.73047H39.7593V23.1985L25.8096 14.3431L0.637924 33.5299V6.73047Z" fill="#D04C44"/>
<path d="M71.9448 6.57524H64.7752C60.5669 6.57524 57.2938 7.66275 55.2676 9.83777C53.3193 11.9351 52.3062 14.8869 52.3062 18.9263V40.6765H58.6966C58.6966 40.6765 58.6966 30.5782 58.6966 29.5684C59.6317 29.5684 84.1021 29.5684 85.1152 29.5684C85.1152 30.5005 85.1152 40.6765 85.1152 40.6765H91.5834V18.8486C91.5834 14.8093 90.6483 11.8574 88.6221 9.76009C86.5179 7.58507 83.3228 6.49756 79.1145 6.49756H71.9448V6.57524ZM58.7745 17.6834V16.9066C59.0083 15.8968 59.3979 14.9646 60.0993 14.3432C61.1903 13.178 62.9048 12.6342 65.1648 12.6342H78.7248C80.9848 12.6342 82.6993 13.178 83.7903 14.3432C84.4917 15.0423 84.8814 15.9745 85.0372 17.1396L85.1152 18.2272C85.1152 18.2272 85.1152 22.0334 85.1152 22.8879C84.18 22.8879 59.7097 22.8879 58.6966 22.8879C58.6966 22.0334 58.6966 18.2272 58.6966 18.2272C58.6966 18.1495 58.7745 17.6834 58.7745 17.6834Z" fill="#D04C44"/>
<path d="M191.335 6.73047H184.555V40.6764H191.803V6.73047H191.335Z" fill="#D04C44"/>
<path d="M176.606 6.73051H141.693V40.6764H148.707C148.707 40.6764 148.863 39.8996 148.941 39.6666C150.11 40.288 151.357 40.6764 152.681 40.6764H169.281C172.866 40.6764 175.593 39.9773 177.541 38.5014C179.568 36.9478 180.659 34.4621 180.659 31.1995V27.4709C180.659 24.7521 179.801 22.6548 178.009 21.1012C176.139 19.4699 173.411 18.6155 169.982 18.6155H152.837C151.357 18.6155 150.188 18.9262 149.019 19.3923C149.019 18.3048 149.019 14.4208 149.019 13.5663C149.954 13.5663 177.074 13.5663 177.074 13.5663V6.65283H176.606V6.73051ZM149.019 28.2477C149.174 27.6263 149.486 27.0049 149.954 26.5388C150.811 25.8397 152.058 25.5289 153.85 25.5289H168.423C171.463 25.5289 172.398 25.995 172.632 26.2281C173.099 26.6165 173.333 27.3156 173.333 28.5584V30.7335C173.333 31.7433 173.099 32.4424 172.71 32.7531C171.93 33.3746 170.45 33.6853 168.423 33.6853H153.85C150.032 33.6853 149.252 32.054 148.941 30.6558C149.019 30.5781 149.019 28.2477 149.019 28.2477Z" fill="#D04C44"/>
<path d="M109.897 6.5752C104.754 6.5752 101.013 7.50735 98.5972 9.37165C96.649 10.9252 95.7138 13.1003 95.7138 15.7414V16.2851L96.1814 16.4405H102.883V15.8967C102.883 15.586 102.961 15.1976 103.507 14.8092C104.676 13.9547 106.78 13.4887 109.741 13.4887H123.535C127.666 13.4887 127.666 15.2753 127.666 16.2074V17.4503C127.666 18.3048 127.666 20.1691 123.691 20.1691H106.234V27.0826H122.834C126.263 27.0826 127.432 27.704 127.821 28.0147C128.211 28.3254 128.445 28.9469 128.445 29.879V31.2773C128.445 32.0541 128.445 33.996 123.535 33.996H108.339C105.143 33.996 103.974 33.3746 103.507 33.0639C103.117 32.8309 102.961 32.2871 102.883 31.5103V31.0442H95.7138V31.7433C95.7138 34.3844 96.571 36.5595 98.1297 38.1131C100.156 39.9774 103.273 40.9095 107.403 40.9095H123.613C127.588 40.9095 130.471 40.1327 132.497 38.5015C134.601 36.7925 135.692 34.3844 135.692 31.3549V29.7237C135.692 27.937 135.147 26.3835 134.056 24.9852C133.588 24.4415 132.965 23.8977 132.108 23.4316C132.575 23.0432 133.199 22.5772 133.199 22.5772C134.29 21.1789 134.835 19.5477 134.835 17.4503V16.2074C134.835 13.1779 133.744 10.8476 131.64 9.13862C129.692 7.50735 126.808 6.65287 122.912 6.65287H109.897V6.5752Z" fill="#D04C44"/>
<path d="M200.453 4.24489H199.128V5.79848H198.739V1.99219H200.531C200.921 1.99219 201.232 2.06987 201.388 2.22523C201.544 2.38059 201.7 2.6913 201.7 3.0797C201.7 3.39042 201.7 3.62346 201.622 3.70114C201.544 3.8565 201.31 4.01185 201.077 4.08953C201.31 4.08953 201.466 4.16721 201.544 4.32257C201.622 4.47793 201.7 4.63329 201.7 4.86633V5.87616H201.31V5.02169C201.31 4.78865 201.232 4.63329 201.154 4.47793C200.843 4.32257 200.687 4.24489 200.453 4.24489ZM199.128 3.93417H200.375C200.687 3.93417 200.921 3.8565 200.999 3.77882C201.154 3.70114 201.232 3.4681 201.232 3.23506C201.232 2.92434 201.154 2.76898 201.077 2.61362C200.999 2.45827 200.765 2.45826 200.531 2.45826H199.128V3.93417Z" fill="#D04C44"/>
<path d="M200.297 0.283203V0.360883V0.283203ZM200.297 0.283203C201.388 0.283203 202.323 0.6716 203.025 1.29304L202.947 1.37072C202.246 0.749279 201.31 0.360883 200.219 0.360883V0.283203H200.297ZM203.025 1.29304C203.726 1.91447 204.194 2.76895 204.194 3.77878H204.116C204.116 2.84662 203.648 1.99215 203.025 1.29304ZM204.194 3.77878H204.116H204.194ZM204.194 3.77878H204.116H204.194ZM204.194 3.77878C204.194 4.71093 203.726 5.5654 203.025 6.26452L202.947 6.18684C203.648 5.56541 204.038 4.71093 204.038 3.77878H204.194ZM203.025 6.26452C202.323 6.88595 201.388 7.27435 200.297 7.27435V7.19667C201.31 7.19667 202.246 6.80828 203.025 6.26452ZM200.297 7.27435V7.19667V7.27435ZM200.297 7.27435V7.19667V7.27435ZM200.297 7.27435C199.206 7.27435 198.271 6.88595 197.492 6.26452L197.57 6.18684C198.271 6.80828 199.206 7.19667 200.297 7.19667V7.27435ZM197.492 6.26452C196.79 5.64308 196.323 4.78861 196.323 3.77878H196.401C196.479 4.78861 196.868 5.5654 197.492 6.26452ZM196.323 3.77878H196.401H196.323ZM196.323 3.77878H196.401H196.323ZM196.323 3.77878C196.323 2.84662 196.79 1.99215 197.492 1.29304L197.57 1.37072C196.868 1.99215 196.479 2.84662 196.479 3.77878H196.323ZM197.492 1.29304C198.193 0.6716 199.206 0.283203 200.297 0.283203V0.360883C199.206 0.360883 198.271 0.749279 197.492 1.29304ZM200.297 0.283203V0.360883V0.283203Z" fill="#D04C44"/>
<path d="M4.06689 53.2608L4.76827 53.4162C4.61241 53.9599 4.37862 54.426 3.98896 54.7367C3.59931 55.0474 3.13172 55.2028 2.5862 55.2028C2.04069 55.2028 1.49517 55.0474 1.18345 54.8144C0.793791 54.5813 0.559998 54.2706 0.326204 53.8046C0.170342 53.3385 0.0144806 52.8724 0.0144806 52.3286C0.0144806 51.7849 0.0924113 51.3188 0.326204 50.8527C0.559998 50.4643 0.871721 50.1536 1.26138 49.9206C1.65103 49.6875 2.11862 49.6099 2.5862 49.6099C3.13172 49.6099 3.59931 49.7652 3.98896 49.9983C4.37862 50.309 4.61241 50.6197 4.76827 51.1635L4.06689 51.3188C3.91103 50.9304 3.75517 50.6197 3.52138 50.4643C3.28758 50.309 2.97586 50.2313 2.5862 50.2313C2.19655 50.2313 1.80689 50.309 1.5731 50.542C1.26138 50.7751 1.10551 51.0081 0.949652 51.3188C0.871721 51.6295 0.793791 52.0179 0.793791 52.3286C0.793791 52.7947 0.871722 53.1831 1.02758 53.4938C1.18345 53.8045 1.33931 54.1153 1.65103 54.2706C1.96276 54.426 2.27448 54.5037 2.5862 54.5037C2.97586 54.5037 3.36551 54.426 3.59931 54.1929C3.75517 54.0376 3.91103 53.7269 4.06689 53.2608Z" fill="#D04C44"/>
<path d="M13.2628 55.125V50.3866H11.4703V49.7651H15.8345V50.3866H14.0421V55.125H13.2628Z" fill="#D04C44"/>
<path d="M22.8483 55.125V49.7651H24.8745C25.2641 49.7651 25.4979 49.7651 25.7317 49.8428C25.9655 49.9205 26.1993 49.9982 26.4331 50.0758C26.589 50.2312 26.7448 50.3866 26.9007 50.6196C26.9786 50.8526 27.0565 51.0857 27.0565 51.3187C27.0565 51.7848 26.9007 52.1732 26.589 52.4839C26.2772 52.7946 25.7317 52.95 25.0303 52.95H23.6276V55.125H22.8483ZM23.5496 52.3286H24.9524C25.42 52.3286 25.7317 52.2509 25.9655 52.0955C26.1993 51.9402 26.2772 51.7071 26.2772 51.3964C26.2772 51.1634 26.1993 51.008 26.1214 50.8526C26.0434 50.6973 25.8876 50.6196 25.6538 50.5419C25.4979 50.5419 25.3421 50.4642 24.9524 50.4642H23.5496V52.3286Z" fill="#D04C44"/>
<path d="M33.9924 52.484C33.9924 51.6295 34.2262 50.9304 34.6938 50.3867C35.1614 49.8429 35.7848 49.6099 36.5641 49.6099C37.0317 49.6099 37.4993 49.7652 37.889 49.9983C38.2786 50.2313 38.5903 50.542 38.8241 51.0081C39.0579 51.3965 39.1359 51.9402 39.1359 52.484C39.1359 53.0278 39.0579 53.4938 38.8241 53.9599C38.5903 54.426 38.2786 54.7367 37.889 54.9697C37.4993 55.2028 37.0317 55.2805 36.5641 55.2805C36.0186 55.2805 35.629 55.1251 35.1614 54.8921C34.7717 54.659 34.46 54.3483 34.2262 53.8822C34.0703 53.4162 33.9924 52.9501 33.9924 52.484ZM34.6938 52.5617C34.6938 53.1831 34.8497 53.7269 35.2393 54.1153C35.551 54.5037 36.0186 54.659 36.5641 54.659C37.1096 54.659 37.5772 54.5037 37.889 54.1153C38.2007 53.7269 38.4345 53.1831 38.4345 52.484C38.4345 52.0179 38.3565 51.6295 38.2007 51.3188C38.0448 51.0081 37.811 50.7751 37.5772 50.542C37.2655 50.3867 36.9538 50.309 36.6421 50.309C36.0965 50.309 35.7069 50.4643 35.3172 50.8527C34.8497 51.1635 34.6938 51.7072 34.6938 52.5617Z" fill="#D04C44"/>
<path d="M46.3834 49.7651H47.0069V54.0375L49.8903 49.7651H50.5917V55.125H49.9683V50.8526L47.0848 55.125H46.3834V49.7651Z" fill="#D04C44"/>
<path d="M59.4759 55.125V50.3866H57.6834V49.7651H61.9697V50.3866H60.1772V55.125H59.4759Z" fill="#D04C44"/>
<path d="M66.8793 55.125V49.7651H70.7759V50.3866H67.5807V52.0178H70.5421V52.6393H67.5807V54.5036H70.9317V55.125H66.8793Z" fill="#D04C44"/>
<path d="M78.6469 49.7651H81.9979V55.125H81.2966V50.3866H79.3483V53.183C79.3483 53.7268 79.3483 54.1929 79.2704 54.4259C79.1924 54.6589 79.1145 54.892 78.9586 55.0473C78.8028 55.2027 78.569 55.2804 78.3352 55.2804C78.1793 55.2804 78.0235 55.2804 77.7897 55.2027L77.9455 54.5813C78.0234 54.6589 78.1793 54.6589 78.2572 54.6589C78.4131 54.6589 78.569 54.5813 78.6469 54.5036C78.7248 54.3482 78.8028 54.1152 78.8028 53.6491V49.7651H78.6469Z" fill="#D04C44"/>
<path d="M89.4793 49.7651H90.1807V52.0955H91.5055C92.129 52.0955 92.5186 52.1732 92.8303 52.3286C93.0641 52.4839 93.2979 52.6393 93.3759 52.8723C93.5317 53.1054 93.5317 53.3384 93.5317 53.6491C93.5317 54.0375 93.3759 54.4259 93.0641 54.7366C92.7524 55.0473 92.2848 55.2027 91.5055 55.2027H89.4793V49.7651ZM90.2586 54.5036H91.5834C92.129 54.5036 92.4407 54.4259 92.5966 54.1929C92.7524 54.0375 92.8303 53.8045 92.8303 53.4937C92.8303 53.2607 92.7524 53.1054 92.6745 52.95C92.5966 52.7946 92.4407 52.717 92.2069 52.6393C91.9731 52.5616 91.6614 52.5616 91.1938 52.5616H90.2586V54.5036Z" fill="#D04C44"/>
<path d="M109.196 49.7651H112.703V50.3866H109.897V52.0178H111.222C111.69 52.0178 112.079 52.0955 112.391 52.1732C112.703 52.2509 112.937 52.4062 113.092 52.7169C113.248 52.95 113.326 53.2607 113.326 53.5714C113.326 53.8821 113.248 54.1152 113.17 54.3482C113.014 54.5813 112.859 54.7366 112.625 54.892C112.391 55.0473 112.001 55.125 111.378 55.125H109.274V49.7651H109.196ZM109.897 54.5036H111.3C111.69 54.5036 112.001 54.4259 112.157 54.2705C112.313 54.1152 112.469 53.8821 112.469 53.5714C112.469 53.3384 112.391 53.183 112.313 53.0277C112.235 52.8723 112.079 52.7946 111.846 52.7169C111.69 52.6393 111.3 52.6393 110.832 52.6393H109.897V54.5036Z" fill="#D04C44"/>
<path d="M119.872 49.7651H120.574L122.366 53.0277L123.925 49.7651H124.626L122.6 53.9598C122.366 54.5036 122.132 54.8143 121.977 54.9697C121.821 55.125 121.587 55.2027 121.275 55.2027C121.119 55.2027 120.886 55.125 120.574 55.0473V54.4259C120.73 54.5036 120.963 54.5813 121.197 54.5813C121.353 54.5813 121.509 54.5036 121.665 54.4259C121.821 54.3482 121.899 54.0375 122.054 53.6491L119.872 49.7651Z" fill="#D04C44"/>
<path d="M129.848 49.7651H133.121V54.5036H133.588V56.3679H132.965V55.125H129.38V56.3679H128.834V54.5036H129.224C129.692 53.8821 129.848 52.5616 129.848 50.5419V49.7651ZM132.497 50.3866H130.627V50.6973C130.627 51.1634 130.549 51.7848 130.471 52.5616C130.393 53.3384 130.237 54.0375 130.003 54.5036H132.497V50.3866Z" fill="#D04C44"/>
<path d="M140.29 49.7651H140.992L142.784 53.0277L144.343 49.7651H145.044L143.018 53.9598C142.784 54.5036 142.55 54.8143 142.394 54.9697C142.239 55.125 142.005 55.2027 141.693 55.2027C141.537 55.2027 141.303 55.125 140.992 55.0473V54.4259C141.148 54.5036 141.381 54.5813 141.615 54.5813C141.771 54.5813 141.927 54.5036 142.083 54.4259C142.239 54.3482 142.317 54.0375 142.472 53.6491L140.29 49.7651Z" fill="#D04C44"/>
<path d="M151.902 49.7651H152.603V54.5036H154.396V49.7651H155.097V54.5036H156.89V49.7651H157.591V54.5036H158.059V56.6009H157.435V55.125H151.824V49.7651H151.902Z" fill="#D04C44"/>
<path d="M165.306 55.125V49.7651H169.203V50.3866H166.008V52.0178H168.969V52.6393H166.008V54.5036H169.359V55.125H165.306Z" fill="#D04C44"/>
<path d="M176.606 49.7651H180.113V50.3866H177.308V55.125H176.606V49.7651Z" fill="#D04C44"/>
<path d="M186.815 52.484C186.815 51.6295 187.049 50.9304 187.517 50.3867C187.984 49.8429 188.608 49.6099 189.387 49.6099C189.854 49.6099 190.322 49.7652 190.712 49.9983C191.101 50.2313 191.413 50.542 191.647 51.0081C191.881 51.3965 191.959 51.9402 191.959 52.484C191.959 53.0278 191.881 53.4938 191.647 53.9599C191.413 54.426 191.101 54.7367 190.712 54.9697C190.322 55.2028 189.854 55.2805 189.387 55.2805C188.841 55.2805 188.452 55.1251 187.984 54.8921C187.594 54.659 187.283 54.3483 187.049 53.8822C186.893 53.4162 186.815 52.9501 186.815 52.484ZM187.517 52.5617C187.517 53.1831 187.672 53.7269 188.062 54.1153C188.452 54.5037 188.841 54.659 189.387 54.659C189.932 54.659 190.4 54.5037 190.712 54.1153C191.023 53.7269 191.257 53.1831 191.257 52.484C191.257 52.0179 191.179 51.6295 191.023 51.3188C190.868 51.0081 190.634 50.7751 190.4 50.542C190.088 50.3867 189.777 50.309 189.465 50.309C188.919 50.309 188.53 50.4643 188.14 50.8527C187.672 51.1635 187.517 51.7072 187.517 52.5617Z" fill="#D04C44"/>
</svg>
