<svg width="102" height="135" viewBox="0 0 102 135" fill="none" xmlns="http://www.w3.org/2000/svg">
<path fill-rule="evenodd" clip-rule="evenodd" d="M101.667 101.577H0.506409V86.8301L61.0096 44.5192L101.667 69.7404V101.577Z" fill="#D04C44"/>
<path fill-rule="evenodd" clip-rule="evenodd" d="M0.506409 0.967957H101.667V49.7564L65.5577 23.4327L0.506409 80.2148V0.967957Z" fill="#D04C44"/>
<path d="M14.8397 109.019H9.60256C6.57051 109.019 4.22756 109.846 2.71153 111.5C1.33333 113.016 0.506409 115.221 0.506409 118.253V134.378H5.19231C5.19231 134.378 5.19231 126.936 5.19231 126.109C5.88141 126.109 23.6602 126.109 24.3494 126.109C24.3494 126.798 24.3494 134.378 24.3494 134.378H29.0353V118.115C29.0353 115.083 28.3461 112.878 26.9679 111.362C25.4519 109.708 23.109 108.881 20.0769 108.881H14.8397V109.019ZM5.19231 117.288V116.737C5.33013 116.048 5.60576 115.359 6.15705 114.808C6.98397 113.981 8.22436 113.567 9.8782 113.567H19.6635C21.3173 113.567 22.5577 113.981 23.3846 114.808C23.9359 115.359 24.2115 116.048 24.3494 116.875V117.702C24.3494 117.702 24.3494 120.458 24.3494 121.147C23.6602 121.147 5.88141 121.147 5.19231 121.147C5.19231 120.458 5.19231 117.702 5.19231 117.702C5.19231 117.564 5.19231 117.288 5.19231 117.288Z" fill="#D04C44"/>
<path d="M101.253 109.019H96.4295V134.24H101.667V109.019H101.253Z" fill="#D04C44"/>
<path d="M90.7788 109.019H65.4199V134.24H70.5192C70.5192 134.24 70.657 133.689 70.657 133.413C71.484 133.827 72.4487 134.24 73.4135 134.24H85.5416C88.1602 134.24 90.0897 133.689 91.4679 132.587C92.9839 131.484 93.673 129.554 93.673 127.212V124.455C93.673 122.388 92.9839 120.872 91.7436 119.631C90.3654 118.391 88.4359 117.84 85.9551 117.84H73.5513C72.4487 117.84 71.6218 118.115 70.7949 118.391C70.7949 117.564 70.7949 114.67 70.7949 114.119C71.484 114.119 91.1923 114.119 91.1923 114.119V109.019H90.7788ZM70.7949 125.006C70.9327 124.593 71.0705 124.042 71.484 123.766C72.0352 123.215 73 122.939 74.3782 122.939H84.9904C87.1955 122.939 87.8846 123.353 88.0224 123.49C88.4359 123.766 88.5737 124.317 88.5737 125.144V126.798C88.5737 127.487 88.4359 128.038 88.1602 128.314C87.609 128.728 86.5064 129.003 84.9904 129.003H74.3782C71.6218 129.003 71.0705 127.763 70.7949 126.798V125.006Z" fill="#D04C44"/>
<path d="M42.4039 109.019C38.6827 109.019 35.9263 109.708 34.2724 111.087C32.8942 112.189 32.2051 113.843 32.2051 115.772V116.186L32.6186 116.324H37.4423V115.91C37.4423 115.635 37.4423 115.359 37.8558 115.083C38.6827 114.394 40.1987 114.119 42.4039 114.119H52.4647C55.4968 114.119 55.4968 115.497 55.4968 116.048V117.013C55.4968 117.564 55.4968 119.08 52.6026 119.08H40.0609V124.179H52.0513C54.5321 124.179 55.359 124.593 55.6346 124.869C55.9103 125.144 56.0481 125.558 56.0481 126.247V127.212C56.0481 127.763 56.0481 129.141 52.4647 129.141H41.4391C39.0962 129.141 38.2692 128.728 37.9936 128.452C37.718 128.314 37.5801 127.901 37.5801 127.349V126.936H32.343V127.487C32.343 129.417 32.8942 131.071 34.1346 132.173C35.6507 133.551 37.8558 134.24 40.8878 134.24H52.6026C55.4968 134.24 57.5641 133.689 59.0801 132.449C60.5962 131.071 61.4231 129.417 61.4231 127.074V126.109C61.4231 124.731 61.0096 123.628 60.3205 122.526C60.0449 122.112 59.4936 121.699 58.9423 121.285C59.3558 121.01 59.7692 120.596 59.7692 120.596C60.5962 119.631 61.0096 118.253 61.0096 116.737V115.772C61.0096 113.567 60.1827 111.776 58.6667 110.535C57.2885 109.295 55.0833 108.744 52.3269 108.744H42.4039V109.019Z" fill="#D04C44"/>
</svg>
