<svg width="28" height="28" viewBox="0 0 28 28" fill="none" xmlns="http://www.w3.org/2000/svg">
<path d="M27.9866 22.0923C28.046 22.5468 27.9074 22.9421 27.5717 23.278L23.6293 27.1905C23.4515 27.3881 23.2193 27.5562 22.9328 27.6944C22.6462 27.8328 22.3647 27.9217 22.0881 27.9612C22.0684 27.9612 22.009 27.9663 21.9101 27.9761C21.8114 27.986 21.683 27.991 21.5249 27.991C21.1493 27.991 20.5416 27.9268 19.7018 27.7983C18.862 27.6698 17.8344 27.3536 16.6192 26.8498C15.4037 26.3459 14.0254 25.5899 12.4841 24.5822C10.9428 23.5745 9.30258 22.1911 7.5636 20.4324C6.18033 19.0688 5.03418 17.7646 4.12517 16.5197C3.21616 15.2747 2.485 14.1236 1.93169 13.0664C1.37834 12.0092 0.963353 11.0508 0.686698 10.1912C0.410042 9.33157 0.222312 8.59053 0.123507 7.96805C0.0247014 7.34558 -0.0148208 6.85649 0.00494027 6.50079C0.0247014 6.14509 0.0345819 5.94748 0.0345819 5.90796C0.0741041 5.6313 0.163029 5.34971 0.301357 5.06317C0.439684 4.77664 0.607653 4.54445 0.805264 4.3666L4.7476 0.42426C5.02426 0.147605 5.34043 0.00927734 5.69613 0.00927734C5.95303 0.00927734 6.18028 0.0833814 6.37789 0.231589C6.5755 0.379798 6.74347 0.562588 6.8818 0.77996L10.0535 6.79721C10.2313 7.11339 10.2807 7.4592 10.2017 7.83467C10.1226 8.21013 9.95465 8.5263 9.69775 8.7832L8.24531 10.2356C8.20579 10.2752 8.17121 10.3394 8.14157 10.4283C8.11192 10.5172 8.0971 10.5913 8.0971 10.6506C8.17615 11.0656 8.354 11.5399 8.63065 12.0734C8.86779 12.5477 9.23337 13.1257 9.72739 13.8075C10.2214 14.4892 10.9229 15.2747 11.8319 16.1639C12.7212 17.073 13.5116 17.7794 14.2033 18.2834C14.8948 18.7871 15.473 19.1578 15.9374 19.3949C16.4017 19.632 16.7574 19.7753 17.0044 19.8246L17.3748 19.8987C17.4144 19.8987 17.4787 19.8838 17.5676 19.8542C17.6565 19.8246 17.7207 19.79 17.7603 19.7505L19.4498 18.0312C19.8057 17.7151 20.2205 17.557 20.6948 17.557C21.0308 17.557 21.2975 17.6163 21.4951 17.7349H21.5247L27.2454 21.114C27.6606 21.3711 27.9075 21.6971 27.9866 22.0923Z" fill="#EB2227"/>
</svg>
