<svg width="41" height="41" viewBox="0 0 41 41" fill="none" xmlns="http://www.w3.org/2000/svg">
<path d="M31.4515 28.6465L39.6004 20.4978C40.8345 19.2635 40.8345 17.2553 39.6003 16.021C39.1651 15.5858 38.6336 15.3048 38.0737 15.1766C38.2657 14.7639 38.3673 14.311 38.3673 13.8422C38.3673 12.9967 38.038 12.2018 37.4402 11.604C36.9713 11.135 36.381 10.8322 35.7403 10.7231C36.101 9.62404 35.846 8.36537 34.9737 7.49311C34.494 7.01356 33.8975 6.72129 33.2749 6.61446C33.3792 6.29792 33.4343 5.96367 33.4343 5.62067C33.4343 4.77512 33.1049 3.98021 32.5071 3.38241C31.9093 2.78461 31.1144 2.4553 30.2689 2.4553C29.732 2.4553 29.2157 2.5885 28.7571 2.83861L28.676 2.75152C27.6227 1.61957 26.1317 0.970459 24.5857 0.970459H17.9895C17.5257 0.970459 17.1495 1.34663 17.1495 1.81047V2.91201C17.1495 3.35284 17.2241 3.782 17.3667 4.18555C16.9868 4.02774 16.5756 3.94485 16.1519 3.94485C15.3063 3.94485 14.5114 4.27415 13.9135 4.87195C13.0407 5.74472 12.786 7.00432 13.1476 8.10367C12.5245 8.21025 11.9271 8.50268 11.4471 8.98265C10.8493 9.58054 10.52 10.3755 10.52 11.2209C10.52 11.5632 10.5748 11.897 10.6787 12.2129C10.0387 12.3223 9.44899 12.625 8.98052 13.0935C8.01663 14.0574 7.80558 15.4935 8.34736 16.6642C7.77367 16.7953 7.24675 17.0842 6.82028 17.5106C5.58613 18.7447 5.58613 20.753 6.82028 21.9872L8.4961 23.663L0.245979 31.9129C-0.0820642 32.241 -0.0820642 32.7728 0.245979 33.101C0.41 33.2649 0.625 33.347 0.839916 33.347C1.05483 33.347 1.26983 33.265 1.43385 33.101L9.76359 24.7712C10.2352 25.0403 10.7703 25.1842 11.3281 25.1842C12.1735 25.1842 12.9684 24.8549 13.5663 24.2571C14.2159 23.6076 14.5231 22.7437 14.4889 21.8911C14.5315 21.8928 14.574 21.8941 14.6166 21.8941C15.4271 21.894 16.2379 21.5854 16.8549 20.9685C17.4527 20.3706 17.782 19.5757 17.782 18.7302C17.782 18.6875 17.7806 18.645 17.7789 18.6025C17.821 18.6042 17.863 18.6055 17.9052 18.6055C18.7157 18.6055 19.5264 18.2969 20.1435 17.6799C20.7413 17.082 21.0706 16.2871 21.0706 15.4416C21.0706 15.3989 21.0691 15.3564 21.0675 15.3139C21.1095 15.3156 21.1516 15.3169 21.1938 15.3169C22.0044 15.3169 22.815 15.0084 23.432 14.3913C24.5917 13.2317 24.6615 11.3888 23.642 10.1466L29.2181 4.57053C29.4987 4.28986 29.8715 4.13541 30.2684 4.13541C30.6652 4.13541 31.0382 4.28986 31.3188 4.57053C31.5994 4.85113 31.7538 5.22402 31.7538 5.62084C31.7538 6.01758 31.5994 6.39064 31.3187 6.67115L30.4966 7.49327L27.5136 10.4762C27.1856 10.8043 27.1856 11.3361 27.5136 11.6643C27.6776 11.8282 27.8926 11.9103 28.1075 11.9103C28.3225 11.9103 28.5375 11.8283 28.7015 11.6643L31.6844 8.68132C32.2635 8.10216 33.2059 8.10208 33.7851 8.68123C34.3643 9.26047 34.3643 10.2028 33.7851 10.782L32.9629 11.6042L30.8022 13.765C30.4741 14.093 30.4741 14.6249 30.8022 14.953C30.9662 15.117 31.1812 15.1991 31.3961 15.1991C31.611 15.1991 31.826 15.117 31.9901 14.953L34.1508 12.7923C34.4314 12.5116 34.8044 12.3571 35.2011 12.3571C35.5979 12.3571 35.9709 12.5116 36.2515 12.7923C36.5321 13.0729 36.6865 13.4458 36.6865 13.8426C36.6865 14.2393 36.5321 14.6124 36.2514 14.8929L35.1229 16.0214L34.0907 17.0536C33.7626 17.3817 33.7626 17.9136 34.0907 18.2417C34.2547 18.4056 34.4697 18.4878 34.6846 18.4878C34.8995 18.4878 35.1145 18.4057 35.2785 18.2417L36.3116 17.2087C36.8908 16.6304 37.8326 16.6305 38.4115 17.2094C38.9907 17.7886 38.9907 18.731 38.4115 19.3102L30.2627 27.459C28.2165 29.5052 25.497 30.6898 22.6051 30.7948C22.3926 30.8025 22.1907 30.8906 22.0405 31.0415L14.5128 38.5971C14.1854 38.9257 14.1863 39.4576 14.515 39.785C14.6789 39.9483 14.8934 40.03 15.1079 40.03C15.3233 40.03 15.5389 39.9476 15.7029 39.7828L21.2397 34.2256C22.6461 35.1278 24.3001 35.5568 25.9819 35.4456L30.3153 39.7791C30.4793 39.9431 30.6943 40.0252 30.9093 40.0252C31.1243 40.0252 31.3392 39.9432 31.5032 39.7791C31.8312 39.4511 31.8312 38.9192 31.5032 38.5911L26.8958 33.9832C26.7214 33.8089 26.479 33.7197 26.2332 33.7399L25.9669 33.7617C24.7376 33.8625 23.5225 33.5933 22.4616 32.9987L23.0015 32.457C26.1942 32.26 29.1834 30.9148 31.4515 28.6465ZM12.3784 23.0692C12.0979 23.3499 11.7248 23.5043 11.3281 23.5043C10.9313 23.5043 10.5583 23.3499 10.2778 23.0692L8.00807 20.7995C7.42891 20.2204 7.42891 19.278 8.00807 18.6987C8.28866 18.418 8.66172 18.2636 9.05846 18.2636C9.4552 18.2636 9.82826 18.418 10.1088 18.6987L12.3785 20.9684C12.9576 21.5476 12.9576 22.4899 12.3784 23.0692ZM15.6672 19.7804C15.0879 20.3596 14.1454 20.3596 13.5664 19.7804L11.2966 17.5107L10.1681 16.3821C9.5889 15.8029 9.5889 14.8606 10.1681 14.2814C10.4487 14.0007 10.8217 13.8463 11.2184 13.8463C11.6152 13.8463 11.9882 14.0007 12.2687 14.2814L15.6669 17.6797C15.6669 17.6797 15.6669 17.6797 15.667 17.6797C15.9477 17.9603 16.1021 18.3333 16.1021 18.73C16.1021 19.1268 15.9477 19.4998 15.6672 19.7804ZM18.9558 16.4918C18.3765 17.0709 17.4341 17.0709 16.855 16.4918L12.6345 12.2713C12.3539 11.9907 12.1995 11.6178 12.1995 11.221C12.1995 10.8243 12.3539 10.4512 12.6346 10.1707C12.9242 9.88112 13.3046 9.73633 13.6849 9.73633C14.065 9.73633 14.445 9.88095 14.7345 10.17L16.6581 12.0936L18.9556 14.3911H18.9557C19.2362 14.6717 19.3906 15.0446 19.3906 15.4414C19.3908 15.8382 19.2364 16.2113 18.9558 16.4918ZM22.2444 13.2031C21.6653 13.7823 20.7229 13.7823 20.1437 13.2031L15.9233 8.98265C15.9228 8.98223 15.9223 8.98181 15.9218 8.98131L15.1011 8.16053C14.5219 7.58129 14.5219 6.63898 15.1011 6.05974C15.3906 5.77008 15.7711 5.62529 16.1514 5.62529C16.5318 5.62529 16.9123 5.77008 17.2018 6.05974L22.2443 11.1023C22.5249 11.3828 22.6794 11.7558 22.6794 12.1526C22.6795 12.5495 22.5251 12.9226 22.2444 13.2031ZM22.4653 8.94746L20.1581 6.64024C20.4197 6.69609 20.6887 6.72574 20.9625 6.72566C20.9686 6.72566 20.9748 6.72566 20.981 6.72566L23.2863 6.71482C23.7501 6.71264 24.1245 6.33479 24.1223 5.87086C24.1201 5.40828 23.7445 5.0348 23.2824 5.0348C23.281 5.0348 23.2797 5.0348 23.2784 5.0348L20.9732 5.04563C20.9696 5.04563 20.9663 5.04563 20.9627 5.04563C20.3948 5.04563 19.8605 4.82517 19.4577 4.42432C19.0524 4.02086 18.8293 3.48386 18.8293 2.91193V2.6504H24.5854C25.6667 2.6504 26.7094 3.10433 27.4461 3.89597L27.4803 3.93267L22.4653 8.94746Z" fill="#EB2227"/>
</svg>
