<svg width="16" height="16" viewBox="0 0 16 16" fill="none" xmlns="http://www.w3.org/2000/svg">
<path d="M15.9924 12.6234C16.0263 12.8832 15.9471 13.109 15.7552 13.3009L13.5025 15.5367C13.4008 15.6496 13.2682 15.7457 13.1044 15.8246C12.9407 15.9037 12.7798 15.9545 12.6218 15.9771C12.6105 15.9771 12.5765 15.98 12.5201 15.9856C12.4637 15.9912 12.3903 15.9941 12.2999 15.9941C12.0853 15.9941 11.7381 15.9574 11.2582 15.884C10.7783 15.8106 10.1911 15.6299 9.49669 15.342C8.80212 15.054 8.01453 14.6221 7.13378 14.0462C6.25303 13.4704 5.31576 12.6799 4.32206 11.6749C3.53162 10.8957 2.87668 10.1505 2.35724 9.4391C1.83781 8.72767 1.42 8.06991 1.10383 7.46578C0.78762 6.86166 0.550487 6.31399 0.392399 5.82279C0.23431 5.33159 0.127036 4.90813 0.0705753 4.55243C0.0141151 4.19673 -0.00846903 3.91726 0.00282301 3.714C0.0141151 3.51074 0.0197611 3.39782 0.0197611 3.37524C0.0423452 3.21715 0.0931594 3.05624 0.172204 2.8925C0.251248 2.72877 0.34723 2.59609 0.460151 2.49446L2.71291 0.241695C2.871 0.0836067 3.05168 0.00456238 3.25493 0.00456238C3.40173 0.00456238 3.53159 0.0469075 3.64451 0.131598C3.75743 0.216288 3.85341 0.32074 3.93246 0.444952L5.74483 3.88338C5.84646 4.06405 5.87469 4.26166 5.82952 4.47621C5.78435 4.69076 5.68837 4.87143 5.54157 5.01823L4.71161 5.8482C4.68902 5.87078 4.66926 5.90748 4.65232 5.95829C4.63539 6.00911 4.62692 6.05145 4.62692 6.08533C4.67208 6.32246 4.77371 6.59347 4.9318 6.89836C5.06731 7.16937 5.27621 7.49966 5.55851 7.88923C5.84081 8.27881 6.24168 8.72764 6.76111 9.23578C7.26925 9.75527 7.72094 10.1589 8.11616 10.4469C8.5113 10.7347 8.8417 10.9466 9.10706 11.0821C9.37243 11.2176 9.57568 11.2994 9.71681 11.3276L9.92848 11.37C9.95106 11.37 9.98784 11.3615 10.0386 11.3445C10.0894 11.3276 10.1261 11.3078 10.1487 11.2852L11.1142 10.3028C11.3175 10.1222 11.5546 10.0318 11.8256 10.0318C12.0176 10.0318 12.17 10.0657 12.2829 10.1335H12.2998L15.5688 12.0644C15.806 12.2113 15.9472 12.3976 15.9924 12.6234Z" fill="#EB2227"/>
</svg>
