<svg width="46" height="46" viewBox="0 0 46 46" fill="none" xmlns="http://www.w3.org/2000/svg">
<g clip-path="url(#clip0)">
<path d="M27.9908 6.87402C29.3077 5.8862 29.8433 4.16545 29.3196 2.60454C28.796 1.04363 27.3313 -0.00596361 25.685 2.5498e-05H19.5522C17.9059 -0.00596361 16.4408 1.04363 15.9175 2.60454C15.3938 4.16545 15.9291 5.8862 17.246 6.87402C7.65441 9.55902 1.51708 18.9121 2.87211 28.7796C4.22715 38.6474 12.6583 46.0001 22.6186 46.0001C32.5788 46.0001 41.01 38.6474 42.365 28.7796C43.7201 18.9121 37.5824 9.55902 27.9908 6.87402ZM19.5522 6.13287C18.2821 6.13287 17.2523 5.10312 17.2523 3.83305C17.2523 2.56299 18.2821 1.53324 19.5522 1.53324H25.685C26.9551 1.53324 27.9848 2.56299 27.9848 3.83305C27.9848 5.10312 26.9551 6.13287 25.685 6.13287H19.5522ZM22.6186 44.4632C12.4573 44.4632 4.22003 36.2259 4.22003 26.0646C4.22003 15.9034 12.4573 7.66608 22.6186 7.66608C32.7798 7.66608 41.0171 15.9034 41.0171 26.0646C41.0051 36.221 32.775 44.4512 22.6186 44.4632Z" fill="#EB2227"/>
<path d="M6.51983 10.7325C8.6366 10.7325 10.3529 9.01621 10.3529 6.89944C10.3529 4.78266 8.6366 3.06641 6.51983 3.06641C4.40268 3.06641 2.6868 4.78266 2.6868 6.89944C2.68942 9.01546 4.4038 10.7298 6.51983 10.7325ZM6.51983 4.59962C7.78989 4.59962 8.81964 5.62937 8.81964 6.89944C8.81964 8.1695 7.78989 9.19925 6.51983 9.19925C5.24976 9.19925 4.22001 8.1695 4.22001 6.89944C4.22001 5.62937 5.24976 4.59962 6.51983 4.59962Z" fill="#EB2227"/>
<path d="M39.4839 10.7325C41.6007 10.7325 43.3169 9.01621 43.3169 6.89944C43.3169 4.78266 41.6007 3.06641 39.4839 3.06641C37.3668 3.06641 35.6509 4.78266 35.6509 6.89944C35.6535 9.01546 37.3679 10.7298 39.4839 10.7325ZM39.4839 4.59962C40.754 4.59962 41.7837 5.62937 41.7837 6.89944C41.7837 8.1695 40.754 9.19925 39.4839 9.19925C38.2138 9.19925 37.1841 8.1695 37.1841 6.89944C37.1841 5.62937 38.2138 4.59962 39.4839 4.59962Z" fill="#EB2227"/>
<path d="M22.6186 9.19934V10.7326C30.7843 10.7419 37.5139 17.1428 37.9316 25.2981H31.0119C30.6024 20.8089 26.7338 17.4355 22.2308 17.6406C17.7273 17.8457 14.1818 21.5567 14.1818 26.0647C14.1818 30.5726 17.7273 34.2836 22.2308 34.4887C26.7338 34.6938 30.6024 31.3205 31.0119 26.8313H38.7173C39.1407 26.8313 39.4839 26.488 39.4839 26.0647C39.4734 16.7546 31.9286 9.20982 22.6186 9.19934ZM22.6186 32.9641C18.808 32.9641 15.7191 29.8752 15.7191 26.0647C15.7191 22.2541 18.808 19.1652 22.6186 19.1652C26.4291 19.1652 29.518 22.2541 29.518 26.0647C29.5132 29.8734 26.4269 32.9596 22.6186 32.9641Z" fill="#EB2227"/>
<path d="M22.6186 22.2316C23.4653 22.2316 24.1518 22.9181 24.1518 23.7648H25.685C25.6798 22.3708 24.735 21.1558 23.3852 20.8073V19.9318H21.852V20.8073C20.3585 21.1917 19.3841 22.6272 19.5788 24.1575C19.7738 25.6873 21.0764 26.8331 22.6186 26.8312C23.4653 26.8312 24.1518 27.5177 24.1518 28.3644C24.1518 29.2111 23.4653 29.8976 22.6186 29.8976C21.7719 29.8976 21.0854 29.2111 21.0854 28.3644H19.5522C19.5574 29.7584 20.5022 30.9734 21.852 31.3219V32.1975H23.3852V31.3219C24.8788 30.9375 25.8527 29.502 25.6581 27.9721C25.4634 26.4419 24.1608 25.2961 22.6186 25.298C21.7719 25.298 21.0854 24.6115 21.0854 23.7648C21.0854 22.9181 21.7719 22.2316 22.6186 22.2316Z" fill="#EB2227"/>
<path d="M31.2915 35.8221L32.3759 34.738L35.628 37.9905L34.544 39.0745L31.2915 35.8221Z" fill="#EB2227"/>
<path d="M21.8519 39.0968H23.3851V43.6964H21.8519V39.0968Z" fill="#EB2227"/>
<path d="M9.60837 37.9905L12.8608 34.738L13.9449 35.8221L10.6924 39.0745L9.60837 37.9905Z" fill="#EB2227"/>
<path d="M4.98666 25.2981H9.5863V26.8313H4.98666V25.2981Z" fill="#EB2227"/>
<path d="M9.6091 14.1387L10.6935 13.0543L13.946 16.3068L12.8616 17.3912L9.6091 14.1387Z" fill="#EB2227"/>
</g>
<defs>
<clipPath id="clip0">
<rect width="46" height="46" fill="white"/>
</clipPath>
</defs>
</svg>
